<svg x="0px" y="0px" viewBox="0 0 768 1024" xmlns="http://www.w3.org/2000/svg">
 <g>
  <title>Layer 1</title>
  <path id="spaceship-path" d="m767.336095,0.579589c-12.000088,180.001316 -45.333665,-21.333489 -266.668616,30.666891c-221.334952,52.00038 -112.000819,-86.6673 -234.668382,-8.000058c-122.667564,78.667242 -350.669231,98.667388 -214.668236,181.334659c136.000994,82.667271 621.337876,-224.001638 660.004826,-89.333986c38.666949,134.667651 -974.673793,126.667593 -609.337789,228.001667c365.336004,101.334074 566.67081,-228.001667 620.004533,-106.667447c53.333723,121.33422 84.000614,348.002544 -16.000117,248.001813c-100.000731,-100.000731 -665.338198,-117.334191 -676.004943,-38.666949c-10.666745,78.667242 320.00234,-12.000088 189.334718,77.333899c-130.667622,89.333986 -264.00193,69.33384 -201.334805,116.000848c62.667125,46.667008 458.67002,-217.334922 493.33694,-145.334396c34.66692,72.000526 281.33539,14.666774 248.001813,66.667154c-33.333577,52.00038 -452.003305,28.000205 -366.669348,92.000673c85.333957,64.000468 284.002076,-32.000234 324.002369,14.666774c40.000292,46.667008 61.333782,90.66733 60.669963,90.087745c0.663819,0.579585 68.664316,51.246622 68.000498,50.667037" opacity="0.5" fill-opacity="null" stroke-opacity="null" stroke-width="null" stroke="none" fill="none"/>
 </g>
</svg>