<svg xmlns="http://www.w3.org/2000/svg" xmlns:xlink="http://www.w3.org/1999/xlink" viewBox="0 0 760.02 287.57"><defs><style>.cls-1{isolation:isolate;}.cls-10,.cls-100,.cls-101,.cls-102,.cls-103,.cls-104,.cls-105,.cls-106,.cls-107,.cls-108,.cls-109,.cls-11,.cls-110,.cls-111,.cls-112,.cls-113,.cls-114,.cls-115,.cls-116,.cls-117,.cls-118,.cls-119,.cls-12,.cls-120,.cls-121,.cls-122,.cls-13,.cls-14,.cls-15,.cls-16,.cls-17,.cls-18,.cls-19,.cls-2,.cls-20,.cls-21,.cls-22,.cls-23,.cls-24,.cls-25,.cls-26,.cls-27,.cls-28,.cls-29,.cls-30,.cls-31,.cls-32,.cls-33,.cls-34,.cls-35,.cls-36,.cls-37,.cls-38,.cls-39,.cls-4,.cls-40,.cls-41,.cls-42,.cls-43,.cls-44,.cls-45,.cls-46,.cls-47,.cls-48,.cls-49,.cls-5,.cls-50,.cls-51,.cls-52,.cls-53,.cls-54,.cls-55,.cls-56,.cls-57,.cls-58,.cls-59,.cls-6,.cls-60,.cls-61,.cls-62,.cls-63,.cls-64,.cls-65,.cls-66,.cls-67,.cls-68,.cls-69,.cls-7,.cls-70,.cls-71,.cls-72,.cls-73,.cls-74,.cls-75,.cls-76,.cls-77,.cls-78,.cls-79,.cls-8,.cls-80,.cls-81,.cls-82,.cls-83,.cls-84,.cls-85,.cls-86,.cls-87,.cls-88,.cls-89,.cls-9,.cls-90,.cls-91,.cls-92,.cls-93,.cls-94,.cls-95,.cls-96,.cls-97,.cls-98,.cls-99{mix-blend-mode:screen;}.cls-3{stroke:url(#Безымянный_градиент_25); fill: none;stroke-width:1;stroke-dasharray: 2000; opacity: 0.8;}.cls-4{fill:url(#Безымянный_градиент_34);}.cls-5{fill:url(#Безымянный_градиент_34-2);}.cls-6{fill:url(#Безымянный_градиент_34-3);}.cls-7{fill:url(#Безымянный_градиент_34-4);}.cls-8{fill:url(#Безымянный_градиент_34-5);}.cls-9{fill:url(#Безымянный_градиент_34-6);}.cls-10{fill:url(#Безымянный_градиент_34-7);}.cls-11{fill:url(#Безымянный_градиент_34-8);}.cls-12{fill:url(#Безымянный_градиент_34-9);}.cls-13{fill:url(#Безымянный_градиент_34-10);}.cls-14{fill:url(#Безымянный_градиент_34-11);}.cls-15{fill:url(#Безымянный_градиент_34-12);}.cls-16{fill:url(#Безымянный_градиент_34-13);}.cls-17{fill:url(#Безымянный_градиент_34-14);}.cls-18{fill:url(#Безымянный_градиент_34-15);}.cls-19{fill:url(#Безымянный_градиент_34-16);}.cls-20{fill:url(#Безымянный_градиент_34-17);}.cls-21{fill:url(#Безымянный_градиент_34-18);}.cls-22{fill:url(#Безымянный_градиент_34-19);}.cls-23{fill:url(#Безымянный_градиент_34-20);}.cls-24{fill:url(#Безымянный_градиент_34-21);}.cls-25{fill:url(#Безымянный_градиент_34-22);}.cls-26{fill:url(#Безымянный_градиент_34-23);}.cls-27{fill:url(#Безымянный_градиент_34-24);}.cls-28{fill:url(#Безымянный_градиент_34-25);}.cls-29{fill:url(#Безымянный_градиент_34-26);}.cls-30{fill:url(#Безымянный_градиент_34-27);}.cls-31{fill:url(#Безымянный_градиент_34-28);}.cls-32{fill:url(#Безымянный_градиент_34-29);}.cls-33{fill:url(#Безымянный_градиент_34-30);}.cls-34{fill:url(#Безымянный_градиент_34-31);}.cls-35{fill:url(#Безымянный_градиент_34-32);}.cls-36{fill:url(#Безымянный_градиент_34-33);}.cls-37{fill:url(#Безымянный_градиент_34-34);}.cls-38{fill:url(#Безымянный_градиент_34-35);}.cls-39{fill:url(#Безымянный_градиент_34-36);}.cls-40{fill:url(#Безымянный_градиент_34-37);}.cls-41{fill:url(#Безымянный_градиент_34-38);}.cls-42{fill:url(#Безымянный_градиент_34-39);}.cls-43{fill:url(#Безымянный_градиент_34-40);}.cls-44{fill:url(#Безымянный_градиент_34-41);}.cls-45{fill:url(#Безымянный_градиент_34-42);}.cls-46{fill:url(#Безымянный_градиент_34-43);}.cls-47{fill:url(#Безымянный_градиент_34-44);}.cls-48{fill:url(#Безымянный_градиент_34-45);}.cls-49{fill:url(#Безымянный_градиент_34-46);}.cls-50{fill:url(#Безымянный_градиент_34-47);}.cls-51{fill:url(#Безымянный_градиент_34-48);}.cls-52{fill:url(#Безымянный_градиент_34-49);}.cls-53{fill:url(#Безымянный_градиент_34-50);}.cls-54{fill:url(#Безымянный_градиент_34-51);}.cls-55{fill:url(#Безымянный_градиент_34-52);}.cls-56{fill:url(#Безымянный_градиент_34-53);}.cls-57{fill:url(#Безымянный_градиент_34-54);}.cls-58{fill:url(#Безымянный_градиент_34-55);}.cls-59{fill:url(#Безымянный_градиент_34-56);}.cls-60{fill:url(#Безымянный_градиент_34-57);}.cls-61{fill:url(#Безымянный_градиент_34-58);}.cls-62{fill:url(#Безымянный_градиент_34-59);}.cls-63{fill:url(#Безымянный_градиент_34-60);}.cls-64{fill:url(#Безымянный_градиент_34-61);}.cls-65{fill:url(#Безымянный_градиент_34-62);}.cls-66{fill:url(#Безымянный_градиент_34-63);}.cls-67{fill:url(#Безымянный_градиент_34-64);}.cls-68{fill:url(#Безымянный_градиент_34-65);}.cls-69{fill:url(#Безымянный_градиент_34-66);}.cls-70{fill:url(#Безымянный_градиент_34-67);}.cls-71{fill:url(#Безымянный_градиент_34-68);}.cls-72{fill:url(#Безымянный_градиент_34-69);}.cls-73{fill:url(#Безымянный_градиент_34-70);}.cls-74{fill:url(#Безымянный_градиент_34-71);}.cls-75{fill:url(#Безымянный_градиент_34-72);}.cls-76{fill:url(#Безымянный_градиент_34-73);}.cls-77{fill:url(#Безымянный_градиент_34-74);}.cls-78{fill:url(#Безымянный_градиент_34-75);}.cls-79{fill:url(#Безымянный_градиент_34-76);}.cls-80{fill:url(#Безымянный_градиент_34-77);}.cls-81{fill:url(#Безымянный_градиент_34-78);}.cls-82{fill:url(#Безымянный_градиент_34-79);}.cls-83{fill:url(#Безымянный_градиент_34-80);}.cls-84{fill:url(#Безымянный_градиент_34-81);}.cls-85{fill:url(#Безымянный_градиент_34-82);}.cls-86{fill:url(#Безымянный_градиент_34-83);}.cls-87{fill:url(#Безымянный_градиент_34-84);}.cls-88{fill:url(#Безымянный_градиент_34-85);}.cls-89{fill:url(#Безымянный_градиент_34-86);}.cls-90{fill:url(#Безымянный_градиент_34-87);}.cls-91{fill:url(#Безымянный_градиент_34-88);}.cls-92{fill:url(#Безымянный_градиент_34-89);}.cls-93{fill:url(#Безымянный_градиент_34-90);}.cls-94{fill:url(#Безымянный_градиент_34-91);}.cls-95{fill:url(#Безымянный_градиент_34-92);}.cls-96{fill:url(#Безымянный_градиент_34-93);}.cls-97{fill:url(#Безымянный_градиент_34-94);}.cls-98{fill:url(#Безымянный_градиент_34-95);}.cls-99{fill:url(#Безымянный_градиент_34-96);}.cls-100{fill:url(#Безымянный_градиент_34-97);}.cls-101{fill:url(#Безымянный_градиент_34-98);}.cls-102{fill:url(#Безымянный_градиент_34-99);}.cls-103{fill:url(#Безымянный_градиент_34-100);}.cls-104{fill:url(#Безымянный_градиент_34-101);}.cls-105{fill:url(#Безымянный_градиент_34-102);}.cls-106{fill:url(#Безымянный_градиент_34-103);}.cls-107{fill:url(#Безымянный_градиент_34-104);}.cls-108{fill:url(#Безымянный_градиент_34-105);}.cls-109{fill:url(#Безымянный_градиент_34-106);}.cls-110{fill:url(#Безымянный_градиент_34-107);}.cls-111{fill:url(#Безымянный_градиент_34-108);}.cls-112{fill:url(#Безымянный_градиент_34-109);}.cls-113{fill:url(#Безымянный_градиент_34-110);}.cls-114{fill:url(#Безымянный_градиент_34-111);}.cls-115{fill:url(#Безымянный_градиент_34-112);}.cls-116{fill:url(#Безымянный_градиент_34-113);}.cls-117{fill:url(#Безымянный_градиент_34-114);}.cls-118{fill:url(#Безымянный_градиент_34-115);}.cls-119{fill:url(#Безымянный_градиент_34-116);}.cls-120{fill:url(#Безымянный_градиент_34-117);}.cls-121{fill:url(#Безымянный_градиент_34-118);}.cls-122{fill:url(#Безымянный_градиент_34-119);}.cls-123{mix-blend-mode:overlay;}.cls-124{fill:url(#Безымянный_градиент_41);}</style><linearGradient id="Безымянный_градиент_25" x1="341.05" y1="278.78" x2="341.05" y2="75.43" gradientUnits="userSpaceOnUse"><stop offset="0"/><stop offset="0.12" stop-color="#001315"/><stop offset="0.37" stop-color="#00444a"/><stop offset="0.73" stop-color="#00929e"/><stop offset="1" stop-color="#00d1e3"/></linearGradient><radialGradient id="Безымянный_градиент_34" cx="740.43" cy="243.27" r="19.59" gradientTransform="translate(152.01 -267.78) rotate(22.79)" gradientUnits="userSpaceOnUse"><stop offset="0" stop-color="#00d1e3"/><stop offset="0.02" stop-color="#00d1e3" stop-opacity="0.89"/><stop offset="0.07" stop-color="#00d1e3" stop-opacity="0.71"/><stop offset="0.13" stop-color="#00d1e3" stop-opacity="0.54"/><stop offset="0.19" stop-color="#00d1e3" stop-opacity="0.39"/><stop offset="0.25" stop-color="#00d1e3" stop-opacity="0.27"/><stop offset="0.32" stop-color="#00d1e3" stop-opacity="0.17"/><stop offset="0.41" stop-color="#00d1e3" stop-opacity="0.09"/><stop offset="0.51" stop-color="#00d1e3" stop-opacity="0.04"/><stop offset="0.65" stop-color="#00d1e3" stop-opacity="0.01"/><stop offset="1" stop-color="#00d1e3" stop-opacity="0"/></radialGradient><radialGradient id="Безымянный_градиент_34-2" cx="477.39" cy="201.6" r="10.49" gradientTransform="matrix(1, 0, 0, 1, 0, 0)" xlink:href="#Безымянный_градиент_34"/><radialGradient id="Безымянный_градиент_34-3" cx="36.5" cy="264.67" r="19.17" gradientTransform="matrix(1, 0, 0, 1, 0, 0)" xlink:href="#Безымянный_градиент_34"/><radialGradient id="Безымянный_градиент_34-4" cx="247" cy="214.99" r="17.53" gradientTransform="translate(399.99 -74.53) rotate(76.82)" xlink:href="#Безымянный_градиент_34"/><radialGradient id="Безымянный_градиент_34-5" cx="684.38" cy="69.5" r="11.3" gradientTransform="matrix(1, 0, 0, 1, 0, 0)" xlink:href="#Безымянный_градиент_34"/><radialGradient id="Безымянный_градиент_34-6" cx="694.61" cy="215.12" r="19.77" gradientTransform="translate(103.94 -208.99) rotate(18.47)" xlink:href="#Безымянный_градиент_34"/><radialGradient id="Безымянный_градиент_34-7" cx="266.18" cy="248.26" r="7.33" gradientTransform="matrix(1, 0, 0, 1, 0, 0)" xlink:href="#Безымянный_градиент_34"/><radialGradient id="Безымянный_градиент_34-8" cx="195.32" cy="179.46" r="20.67" gradientTransform="translate(325.58 -51.6) rotate(76.84)" xlink:href="#Безымянный_градиент_34"/><radialGradient id="Безымянный_градиент_34-9" cx="690.38" cy="183.05" r="6.36" gradientTransform="matrix(1, 0, 0, 1, 0, 0)" xlink:href="#Безымянный_градиент_34"/><radialGradient id="Безымянный_градиент_34-10" cx="678.87" cy="119" r="21.68" gradientTransform="translate(682.02 -570.21) rotate(80.32)" xlink:href="#Безымянный_градиент_34"/><radialGradient id="Безымянный_градиент_34-11" cx="316.86" cy="228.28" r="19.82" gradientTransform="matrix(1, 0, 0, 1, 0, 0)" xlink:href="#Безымянный_градиент_34"/><radialGradient id="Безымянный_градиент_34-12" cx="259.05" cy="189.06" r="20.86" gradientTransform="translate(384.96 -105.89) rotate(76.99)" xlink:href="#Безымянный_градиент_34"/><radialGradient id="Безымянный_градиент_34-13" cx="262.85" cy="255.07" r="8.47" gradientTransform="translate(450.43 -59.52) rotate(76.67)" xlink:href="#Безымянный_градиент_34"/><radialGradient id="Безымянный_градиент_34-14" cx="560.29" cy="154.37" r="6.99" gradientTransform="matrix(1, 0, 0, 1, 0, 0)" xlink:href="#Безымянный_градиент_34"/><radialGradient id="Безымянный_градиент_34-15" cx="206.48" cy="196.16" r="22.24" gradientTransform="matrix(1, 0, 0, 1, 0, 0)" xlink:href="#Безымянный_градиент_34"/><radialGradient id="Безымянный_градиент_34-16" cx="236.06" cy="145.58" r="8.82" gradientTransform="translate(327.9 -116.12) rotate(77.68)" xlink:href="#Безымянный_градиент_34"/><radialGradient id="Безымянный_градиент_34-17" cx="177.12" cy="157.7" r="14.92" gradientTransform="matrix(1, 0, 0, 1, 0, 0)" xlink:href="#Безымянный_градиент_34"/><radialGradient id="Безымянный_градиент_34-18" cx="141.87" cy="107.46" r="14.98" gradientTransform="translate(52.51 -46.45) rotate(22.72)" xlink:href="#Безымянный_градиент_34"/><radialGradient id="Безымянный_градиент_34-19" cx="504.69" cy="202.45" r="8.3" gradientTransform="matrix(1, 0, 0, 1, 0, 0)" xlink:href="#Безымянный_градиент_34"/><radialGradient id="Безымянный_градиент_34-20" cx="142.67" cy="184.69" r="14.82" gradientTransform="matrix(1, 0, 0, 1, 0, 0)" xlink:href="#Безымянный_градиент_34"/><radialGradient id="Безымянный_градиент_34-21" cx="491.49" cy="255.36" r="7.15" gradientTransform="matrix(1, 0, 0, 1, 0, 0)" xlink:href="#Безымянный_градиент_34"/><radialGradient id="Безымянный_градиент_34-22" cx="314.08" cy="205.42" r="19.25" gradientTransform="matrix(1, 0, 0, 1, 0, 0)" xlink:href="#Безымянный_градиент_34"/><radialGradient id="Безымянный_градиент_34-23" cx="31.74" cy="125.43" r="9.67" gradientTransform="matrix(1, 0, 0, 1, 0, 0)" xlink:href="#Безымянный_градиент_34"/><radialGradient id="Безымянный_градиент_34-24" cx="224.46" cy="136.16" r="9.57" gradientTransform="translate(162.02 -118.83) rotate(45)" xlink:href="#Безымянный_градиент_34"/><radialGradient id="Безымянный_градиент_34-25" cx="297.5" cy="267.24" r="6.91" gradientTransform="matrix(1, 0, 0, 1, 0, 0)" xlink:href="#Безымянный_градиент_34"/><radialGradient id="Безымянный_градиент_34-26" cx="164.97" cy="194.14" r="19.24" gradientTransform="matrix(1, 0, 0, 1, 0, 0)" xlink:href="#Безымянный_градиент_34"/><radialGradient id="Безымянный_градиент_34-27" cx="458.75" cy="255.08" r="12.96" gradientTransform="translate(600.94 -250.18) rotate(76.64)" xlink:href="#Безымянный_градиент_34"/><radialGradient id="Безымянный_градиент_34-28" cx="87.96" cy="261.97" r="19.36" gradientTransform="translate(211 14.53) rotate(45)" xlink:href="#Безымянный_градиент_34"/><radialGradient id="Безымянный_градиент_34-29" cx="75.67" cy="137.76" r="14.5" gradientTransform="translate(119.58 -13.16) rotate(45)" xlink:href="#Безымянный_градиент_34"/><radialGradient id="Безымянный_градиент_34-30" cx="556.91" cy="236.95" r="17.2" gradientTransform="translate(658.52 -359.69) rotate(76.62)" xlink:href="#Безымянный_градиент_34"/><radialGradient id="Безымянный_градиент_34-31" cx="345.56" cy="184.8" r="7.76" gradientTransform="matrix(1, 0, 0, 1, 0, 0)" xlink:href="#Безымянный_градиент_34"/><radialGradient id="Безымянный_градиент_34-32" cx="126.92" cy="210.57" r="9.43" gradientTransform="translate(186.07 -28.07) rotate(45)" xlink:href="#Безымянный_градиент_34"/><radialGradient id="Безымянный_градиент_34-33" cx="673.3" cy="228.76" r="10.04" gradientTransform="translate(358.96 -409.09) rotate(45)" xlink:href="#Безымянный_градиент_34"/><radialGradient id="Безымянный_градиент_34-34" cx="523.8" cy="235.81" r="11.75" gradientTransform="matrix(1, 0, 0, 1, 0, 0)" xlink:href="#Безымянный_градиент_34"/><radialGradient id="Безымянный_градиент_34-35" cx="724.82" cy="179.18" r="15.33" gradientTransform="translate(125.48 -266.08) rotate(22.72)" xlink:href="#Безымянный_градиент_34"/><radialGradient id="Безымянный_градиент_34-36" cx="616.46" cy="157.32" r="7.45" gradientTransform="matrix(1, 0, 0, 1, 0, 0)" xlink:href="#Безымянный_градиент_34"/><radialGradient id="Безымянный_градиент_34-37" cx="403.21" cy="272.61" r="7.71" gradientTransform="translate(576.24 -182.31) rotate(76.76)" xlink:href="#Безымянный_градиент_34"/><radialGradient id="Безымянный_градиент_34-38" cx="502.39" cy="119.99" r="6.21" gradientTransform="matrix(1, 0, 0, 1, 0, 0)" xlink:href="#Безымянный_градиент_34"/><radialGradient id="Безымянный_градиент_34-39" cx="16.75" cy="133.21" r="14.97" gradientTransform="translate(87.16 18.9) rotate(38.8)" xlink:href="#Безымянный_градиент_34"/><radialGradient id="Безымянный_градиент_34-40" cx="589.58" cy="197.89" r="14.53" gradientTransform="matrix(1, 0, 0, 1, 0, 0)" xlink:href="#Безымянный_градиент_34"/><radialGradient id="Безымянный_градиент_34-41" cx="77.03" cy="163.56" r="6.63" gradientTransform="matrix(1, 0, 0, 1, 0, 0)" xlink:href="#Безымянный_градиент_34"/><radialGradient id="Безымянный_градиент_34-42" cx="184.52" cy="220.82" r="11.08" gradientTransform="translate(356.78 -9.69) rotate(76.65)" xlink:href="#Безымянный_градиент_34"/><radialGradient id="Безымянный_градиент_34-43" cx="730.28" cy="274.63" r="12.94" gradientTransform="matrix(1, 0, 0, 1, 0, 0)" xlink:href="#Безымянный_градиент_34"/><radialGradient id="Безымянный_градиент_34-44" cx="323.84" cy="267.71" r="15.59" gradientTransform="matrix(1, 0, 0, 1, 0, 0)" xlink:href="#Безымянный_градиент_34"/><radialGradient id="Безымянный_градиент_34-45" cx="102.24" cy="258.51" r="13.61" gradientTransform="translate(330.8 100.26) rotate(76.88)" xlink:href="#Безымянный_градиент_34"/><radialGradient id="Безымянный_градиент_34-46" cx="107.33" cy="115.97" r="13.81" gradientTransform="translate(106.89 -42.05) rotate(42.63)" xlink:href="#Безымянный_градиент_34"/><radialGradient id="Безымянный_градиент_34-47" cx="53.22" cy="263.81" r="7.93" gradientTransform="matrix(1, 0, 0, 1, 0, 0)" xlink:href="#Безымянный_градиент_34"/><radialGradient id="Безымянный_градиент_34-48" cx="280.21" cy="254.16" r="12.12" gradientTransform="translate(117.55 -87.39) rotate(22.33)" xlink:href="#Безымянный_градиент_34"/><radialGradient id="Безымянный_градиент_34-49" cx="644.95" cy="84.55" r="16.84" gradientTransform="matrix(1, 0, 0, 1, 0, 0)" xlink:href="#Безымянный_градиент_34"/><radialGradient id="Безымянный_градиент_34-50" cx="549.84" cy="209.9" r="18.44" gradientTransform="translate(628.88 -373.32) rotate(76.82)" xlink:href="#Безымянный_градиент_34"/><radialGradient id="Безымянный_градиент_34-51" cx="66.11" cy="146.88" r="13.39" gradientTransform="matrix(1, 0, 0, 1, 0, 0)" xlink:href="#Безымянный_градиент_34"/><radialGradient id="Безымянный_градиент_34-52" cx="601.35" cy="117.59" r="20.53" gradientTransform="translate(259.28 -390.78) rotate(45)" xlink:href="#Безымянный_градиент_34"/><radialGradient id="Безымянный_градиент_34-53" cx="185.78" cy="270.68" r="7.4" gradientTransform="matrix(1, 0, 0, 1, 0, 0)" xlink:href="#Безымянный_градиент_34"/><radialGradient id="Безымянный_градиент_34-54" cx="421.03" cy="244.49" r="13.7" gradientTransform="translate(296.2 -226.11) rotate(45)" xlink:href="#Безымянный_градиент_34"/><radialGradient id="Безымянный_градиент_34-55" cx="280.38" cy="84.96" r="15.4" gradientTransform="matrix(1, 0, 0, 1, 0, 0)" xlink:href="#Безымянный_градиент_34"/><radialGradient id="Безымянный_градиент_34-56" cx="418.64" cy="224.22" r="8.82" gradientTransform="matrix(1, 0, 0, 1, 0, 0)" xlink:href="#Безымянный_градиент_34"/><radialGradient id="Безымянный_градиент_34-57" cx="386.12" cy="264.93" r="15.83" gradientTransform="translate(300.42 -195.43) rotate(45)" xlink:href="#Безымянный_градиент_34"/><radialGradient id="Безымянный_градиент_34-58" cx="512.76" cy="74.09" r="9.72" gradientTransform="translate(467.57 -442.02) rotate(76.77)" xlink:href="#Безымянный_градиент_34"/><radialGradient id="Безымянный_градиент_34-59" cx="571.47" cy="266.98" r="6.53" gradientTransform="matrix(1, 0, 0, 1, 0, 0)" xlink:href="#Безымянный_градиент_34"/><radialGradient id="Безымянный_градиент_34-60" cx="30.56" cy="230.73" r="22.29" gradientTransform="matrix(1, 0, 0, 1, 0, 0)" xlink:href="#Безымянный_градиент_34"/><radialGradient id="Безымянный_градиент_34-61" cx="577.9" cy="131.99" r="13.16" gradientTransform="matrix(1, 0, 0, 1, 0, 0)" xlink:href="#Безымянный_градиент_34"/><radialGradient id="Безымянный_градиент_34-62" cx="324.24" cy="152.66" r="9.25" gradientTransform="translate(397.99 -198.05) rotate(76.66)" xlink:href="#Безымянный_градиент_34"/><radialGradient id="Безымянный_градиент_34-63" cx="449.21" cy="261.95" r="14.59" gradientTransform="matrix(1, 0, 0, 1, 0, 0)" xlink:href="#Безымянный_градиент_34"/><radialGradient id="Безымянный_градиент_34-64" cx="737.31" cy="136.04" r="6.17" gradientTransform="matrix(1, 0, 0, 1, 0, 0)" xlink:href="#Безымянный_градиент_34"/><radialGradient id="Безымянный_градиент_34-65" cx="199.84" cy="42" r="16.26" gradientTransform="translate(88.23 -129.01) rotate(45)" xlink:href="#Безымянный_градиент_34"/><radialGradient id="Безымянный_градиент_34-66" cx="242.36" cy="252.21" r="8.34" gradientTransform="matrix(1, 0, 0, 1, 0, 0)" xlink:href="#Безымянный_градиент_34"/><radialGradient id="Безымянный_градиент_34-67" cx="625.42" cy="182.33" r="18.01" gradientTransform="translate(312.11 -388.84) rotate(45)" xlink:href="#Безымянный_градиент_34"/><radialGradient id="Безымянный_градиент_34-68" cx="382.01" cy="243.79" r="12.87" gradientTransform="translate(530.95 -184.21) rotate(76.64)" xlink:href="#Безымянный_градиент_34"/><radialGradient id="Безымянный_градиент_34-69" cx="214.71" cy="263.83" r="18.76" gradientTransform="matrix(1, 0, 0, 1, 0, 0)" xlink:href="#Безымянный_градиент_34"/><radialGradient id="Безымянный_градиент_34-70" cx="644.9" cy="179.53" r="12.84" gradientTransform="translate(718.38 -485.84) rotate(80.75)" xlink:href="#Безымянный_градиент_34"/><radialGradient id="Безымянный_градиент_34-71" cx="497.4" cy="153.61" r="8.67" gradientTransform="matrix(1, 0, 0, 1, 0, 0)" xlink:href="#Безымянный_градиент_34"/><radialGradient id="Безымянный_градиент_34-72" cx="394.64" cy="221.45" r="12.38" gradientTransform="translate(291.78 -219.23) rotate(47.56)" xlink:href="#Безымянный_градиент_34"/><radialGradient id="Безымянный_градиент_34-73" cx="538.01" cy="266.88" r="8.28" gradientTransform="matrix(1, 0, 0, 1, 0, 0)" xlink:href="#Безымянный_градиент_34"/><radialGradient id="Безымянный_градиент_34-74" cx="177.56" cy="209.53" r="21.5" gradientTransform="matrix(1, 0, 0, 1, 0, 0)" xlink:href="#Безымянный_градиент_34"/><radialGradient id="Безымянный_градиент_34-75" cx="74.75" cy="209.44" r="16.79" gradientTransform="matrix(1, 0, 0, 1, 0, 0)" xlink:href="#Безымянный_градиент_34"/><radialGradient id="Безымянный_градиент_34-76" cx="568.41" cy="117.93" r="17.34" gradientTransform="matrix(1, 0, 0, 1, 0, 0)" xlink:href="#Безымянный_градиент_34"/><radialGradient id="Безымянный_градиент_34-77" cx="55.63" cy="54.42" r="5.86" gradientTransform="matrix(1, 0, 0, 1, 0, 0)" xlink:href="#Безымянный_градиент_34"/><radialGradient id="Безымянный_градиент_34-78" cx="419.09" cy="259.09" r="5.94" gradientTransform="matrix(1, 0, 0, 1, 0, 0)" xlink:href="#Безымянный_градиент_34"/><radialGradient id="Безымянный_градиент_34-79" cx="508.29" cy="238.81" r="19.71" gradientTransform="matrix(1, 0, 0, 1, 0, 0)" xlink:href="#Безымянный_градиент_34"/><radialGradient id="Безымянный_градиент_34-80" cx="450.08" cy="80.1" r="15.04" gradientTransform="translate(423.93 -376.31) rotate(76.63)" xlink:href="#Безымянный_градиент_34"/><radialGradient id="Безымянный_градиент_34-81" cx="499.63" cy="100.75" r="12.97" gradientTransform="translate(483.56 -408.68) rotate(76.79)" xlink:href="#Безымянный_градиент_34"/><radialGradient id="Безымянный_градиент_34-82" cx="735.62" cy="83.25" r="9.66" gradientTransform="matrix(1, 0, 0, 1, 0, 0)" xlink:href="#Безымянный_градиент_34"/><radialGradient id="Безымянный_градиент_34-83" cx="657.23" cy="250.16" r="8.13" gradientTransform="matrix(1, 0, 0, 1, 0, 0)" xlink:href="#Безымянный_градиент_34"/><radialGradient id="Безымянный_градиент_34-84" cx="694.25" cy="199.14" r="13.96" gradientTransform="matrix(1, 0, 0, 1, 0, 0)" xlink:href="#Безымянный_градиент_34"/><radialGradient id="Безымянный_градиент_34-85" cx="631.46" cy="226.81" r="18.74" gradientTransform="translate(345.33 -380.08) rotate(45)" xlink:href="#Безымянный_градиент_34"/><radialGradient id="Безымянный_градиент_34-86" cx="533.67" cy="173.95" r="10.12" gradientTransform="matrix(1, 0, 0, 1, 0, 0)" xlink:href="#Безымянный_градиент_34"/><radialGradient id="Безымянный_градиент_34-87" cx="263.97" cy="274.15" r="9.89" gradientTransform="translate(470.46 -45.54) rotate(76.77)" xlink:href="#Безымянный_градиент_34"/><radialGradient id="Безымянный_градиент_34-88" cx="103.88" cy="104.1" r="8.23" gradientTransform="matrix(1, 0, 0, 1, 0, 0)" xlink:href="#Безымянный_градиент_34"/><radialGradient id="Безымянный_градиент_34-89" cx="725.22" cy="211.46" r="14.19" gradientTransform="translate(361.94 -450.88) rotate(45)" xlink:href="#Безымянный_градиент_34"/><radialGradient id="Безымянный_градиент_34-90" cx="145.19" cy="151.21" r="5.68" gradientTransform="matrix(1, 0, 0, 1, 0, 0)" xlink:href="#Безымянный_градиент_34"/><radialGradient id="Безымянный_градиент_34-91" cx="112.73" cy="176.11" r="19.3" gradientTransform="matrix(1, 0, 0, 1, 0, 0)" xlink:href="#Безымянный_градиент_34"/><radialGradient id="Безымянный_градиент_34-92" cx="412.38" cy="176.51" r="8.73" gradientTransform="matrix(1, 0, 0, 1, 0, 0)" xlink:href="#Безымянный_градиент_34"/><radialGradient id="Безымянный_градиент_34-93" cx="671.68" cy="179.15" r="15.92" gradientTransform="translate(121.4 -245.64) rotate(22.73)" xlink:href="#Безымянный_градиент_34"/><radialGradient id="Безымянный_градиент_34-94" cx="672.84" cy="168.76" r="15.38" gradientTransform="matrix(1, 0, 0, 1, 0, 0)" xlink:href="#Безымянный_градиент_34"/><radialGradient id="Безымянный_градиент_34-95" cx="53.7" cy="166.77" r="5.86" gradientTransform="matrix(1, 0, 0, 1, 0, 0)" xlink:href="#Безымянный_градиент_34"/><radialGradient id="Безымянный_градиент_34-96" cx="206.97" cy="248.82" r="16.2" gradientTransform="translate(112.25 -60.66) rotate(22.74)" xlink:href="#Безымянный_градиент_34"/><radialGradient id="Безымянный_градиент_34-97" cx="352.9" cy="248.94" r="8.46" gradientTransform="translate(224.5 -163.4) rotate(37.5)" xlink:href="#Безымянный_градиент_34"/><radialGradient id="Безымянный_градиент_34-98" cx="688.48" cy="261.79" r="6.66" gradientTransform="matrix(1, 0, 0, 1, 0, 0)" xlink:href="#Безымянный_градиент_34"/><radialGradient id="Безымянный_градиент_34-99" cx="132.37" cy="175.99" r="5.93" gradientTransform="matrix(1, 0, 0, 1, 0, 0)" xlink:href="#Безымянный_градиент_34"/><radialGradient id="Безымянный_градиент_34-100" cx="19.44" cy="195.94" r="12.71" gradientTransform="translate(200.1 117.63) rotate(72.23)" xlink:href="#Безымянный_градиент_34"/><radialGradient id="Безымянный_градиент_34-101" cx="391.99" cy="156.36" r="9.79" gradientTransform="translate(225.38 -231.38) rotate(45)" xlink:href="#Безымянный_градиент_34"/><radialGradient id="Безымянный_градиент_34-102" cx="122.69" cy="272.39" r="8.11" gradientTransform="matrix(1, 0, 0, 1, 0, 0)" xlink:href="#Безымянный_градиент_34"/><radialGradient id="Безымянный_градиент_34-103" cx="457.02" cy="156.19" r="18.18" gradientTransform="translate(503.15 -324.58) rotate(76.61)" xlink:href="#Безымянный_градиент_34"/><radialGradient id="Безымянный_градиент_34-104" cx="285.07" cy="238.97" r="7.32" gradientTransform="matrix(1, 0, 0, 1, 0, 0)" xlink:href="#Безымянный_градиент_34"/><radialGradient id="Безымянный_градиент_34-105" cx="539.3" cy="254.13" r="19.11" gradientTransform="matrix(1, 0, 0, 1, 0, 0)" xlink:href="#Безымянный_градиент_34"/><radialGradient id="Безымянный_градиент_34-106" cx="104.89" cy="232.48" r="12.62" gradientTransform="translate(185.41 -9.52) rotate(42.69)" xlink:href="#Безымянный_градиент_34"/><radialGradient id="Безымянный_градиент_34-107" cx="237.68" cy="224.5" r="8.7" gradientTransform="translate(401.82 -58.25) rotate(76.77)" xlink:href="#Безымянный_градиент_34"/><radialGradient id="Безымянный_градиент_34-108" cx="714.17" cy="238.76" r="20.38" gradientTransform="matrix(1, 0, 0, 1, 0, 0)" xlink:href="#Безымянный_градиент_34"/><radialGradient id="Безымянный_градиент_34-109" cx="712.17" cy="224.1" r="18.18" gradientTransform="matrix(1, 0, 0, 1, 0, 0)" xlink:href="#Безымянный_градиент_34"/><radialGradient id="Безымянный_градиент_34-110" cx="43.03" cy="253.19" r="8.43" gradientTransform="translate(279.57 153.14) rotate(76.72)" xlink:href="#Безымянный_градиент_34"/><radialGradient id="Безымянный_градиент_34-111" cx="639.68" cy="200.9" r="19.25" gradientTransform="translate(329.41 -393.48) rotate(45)" xlink:href="#Безымянный_градиент_34"/><radialGradient id="Безымянный_градиент_34-112" cx="230.66" cy="259.46" r="21.41" gradientTransform="matrix(1, 0, 0, 1, 0, 0)" xlink:href="#Безымянный_градиент_34"/><radialGradient id="Безымянный_градиент_34-113" cx="275.28" cy="140.36" r="7.47" gradientTransform="translate(348.86 -159.75) rotate(76.76)" xlink:href="#Безымянный_градиент_34"/><radialGradient id="Безымянный_градиент_34-114" cx="151.49" cy="252.92" r="6.89" gradientTransform="matrix(1, 0, 0, 1, 0, 0)" xlink:href="#Безымянный_градиент_34"/><radialGradient id="Безымянный_градиент_34-115" cx="399.1" cy="263.46" r="14.95" gradientTransform="translate(595.56 -172.54) rotate(80.83)" xlink:href="#Безымянный_градиент_34"/><radialGradient id="Безымянный_градиент_34-116" cx="83.01" cy="243.6" r="6.32" gradientTransform="matrix(1, 0, 0, 1, 0, 0)" xlink:href="#Безымянный_градиент_34"/><radialGradient id="Безымянный_градиент_34-117" cx="463.2" cy="234.42" r="8.53" gradientTransform="matrix(1, 0, 0, 1, 0, 0)" xlink:href="#Безымянный_градиент_34"/><radialGradient id="Безымянный_градиент_34-118" cx="290.3" cy="169.6" r="13.06" gradientTransform="translate(78.8 -91.76) rotate(20.72)" xlink:href="#Безымянный_градиент_34"/><radialGradient id="Безымянный_градиент_34-119" cx="354.77" cy="106.01" r="11.76" gradientTransform="translate(68.27 -128.55) rotate(22.67)" xlink:href="#Безымянный_градиент_34"/><linearGradient id="Безымянный_градиент_41" x1="377.35" y1="278.33" x2="377.35" y2="0" gradientTransform="matrix(1, 0, 0, 1, 0, 0)" xlink:href="#Безымянный_градиент_34"/></defs><title>Tech_L</title><g class="cls-1"><g id="Layer_2" data-name="Layer 2"><g id="BACKGROUND_2" data-name="BACKGROUND 2"><g class="cls-2"><path class="cls-3" d="M260,159l-.08-63.4a3.33,3.33,0,1,0-.9,0l.08,63-18.91,18.83v-1a3.36,3.36,0,1,0-.9,0v1.93l-20.09,20-.14.13v27l3.37,3.32-1.93,1.91H201.25v47.62a.46.46,0,0,0,.91,0V231.61h18.67l2.2-2.18,9.32,9.22,0,39.68a.45.45,0,1,0,.9,0l0-39.87v-.19l-9.59-9.47,16.49-16.34V178.74l19.67-19.6Zm-20.71,53.08L223,228.17l-3.1-3.07V198.89l19.33-19.26Zm145.59-15.35a3.35,3.35,0,1,0-.9,0l0,25.16,19,18.86v37.57a.45.45,0,0,0,.9,0V240.38l-19-18.86Zm-49.79-3.14,19-18.83V139.31a3.36,3.36,0,1,0-.9,0v35l-19,18.83v38.11l38,37.79v9.21a.45.45,0,0,0,.45.45.45.45,0,0,0,.45-.45v-9.59l-38-37.79ZM300.85,149a3.36,3.36,0,1,0-.9,0l-.05,44.32v.19l28.46,28.35v18.53l-9.47,9.36,0,28.53a.45.45,0,0,0,.45.45h0a.45.45,0,0,0,.45-.45l0-28.15,9.47-9.37V221.54L300.8,193.19Zm-41.74,47.69a3.33,3.33,0,1,0-.91,0V221.9l9.51,9.43v47a.45.45,0,1,0,.9,0V231l-9.5-9.44Zm133-3.5V139.77a3.33,3.33,0,1,0-.9,0V193.6l28.46,28.33,0,56.4a.45.45,0,0,0,.45.45.45.45,0,0,0,.45-.45l0-56.78ZM452.37,170a3.35,3.35,0,1,0-.9,0l.06,36.3L432.63,225v53.31a.45.45,0,0,0,.45.45.45.45,0,0,0,.45-.45V225.4l18.9-18.75Zm88.06-48a3.32,3.32,0,1,0-.9,0v50l-26.7,26.54v39.54l-53,0h-.45v40.23a.45.45,0,0,0,.9,0V239l53,0h.45V198.89l26.7-26.53Zm40.12,77.23-.08-63.74a3.3,3.3,0,1,0-.9,0l.08,62.84H539.53v27.23l13.32,13.17,0,39.68a.45.45,0,1,0,.9,0l0-40.06L540.43,225.1V199.15ZM607.18,82.08a3.36,3.36,0,1,0-.9,0v37.19l26.78,26.51v39.38l-26.77,26.6v66.56a.45.45,0,0,0,.9,0V212.14L634,185.55V145.41l-26.78-26.5Zm-234.62,112,.14-.13V144.26a3.34,3.34,0,1,0-.9,0v49.32L352,212.43h27.32v65.9a.45.45,0,1,0,.9,0v-66.8h-26ZM489,191.6V114.83a3.35,3.35,0,1,0-.9,0v76.38l-39.9,39.71-.13.13,0,47.27a.45.45,0,1,0,.9,0l0-46.89,39.9-39.71ZM166.52,83a3.35,3.35,0,1,0-.9,0v49.59l26.7,26.48v52.7l-4.74,4.72-23.36-23.25V139.77a3.34,3.34,0,1,0-.9,0V193.6l23.62,23.51-23.05,22.95-18.71-18.54,0-25.14a3.35,3.35,0,1,0-.9,0l0,25.52,19,18.79-18.07,18V249.6l-32.15,0V225.4l26.78-26.53-.05-36.68a3.33,3.33,0,1,0-.9,0l0,36.32L112.13,225v24.56h-4.92v-28l-19-18.86V183.75l24.67-24.55.14-.13V82.14a3.35,3.35,0,1,0-.9,0v76.55L88.22,182.48v-14a3.32,3.32,0,1,0-.9,0v14.95L72.09,198.54l0,79.79a.45.45,0,0,0,.45.45.45.45,0,0,0,.45-.45l0-79.42,14.33-14.26v18.4l19,18.86v28.56h5.82v27.86a.45.45,0,0,0,.45.45.45.45,0,0,0,.45-.45V250.48l31.25,0v9.07L139,264.78l-.13.14v13.41a.45.45,0,1,0,.9,0v-13l4.47-4.45v17.49a.45.45,0,0,0,.9,0V260l18.14-18v36.43a.45.45,0,1,0,.9,0V241l23.36-23.25,4.2,4.18,0,56.4a.45.45,0,0,0,.9,0l0-56.59v-.19l-4.46-4.44,4.87-4.84.13-.14V158.69l-26.7-26.49ZM32.67,185H21.74v-.82l19-18.84V140.13a3.35,3.35,0,1,0-.9,0V165l-19,18.84V185L6.21,185V135.42a3.37,3.37,0,1,0-.9,0v50.43l15.53,0v26.55l19,18.9v47a.45.45,0,0,0,.45.45.45.45,0,0,0,.45-.45V231l-19-18.91V185.88H32.3l26.46,26.28v66.16a.45.45,0,0,0,.9,0V211.79L32.8,185.12Zm643.72-14.34a3.34,3.34,0,0,0-.43,6.65v34.53H657.23L638,231v47.36a.45.45,0,0,0,.45.45.45.45,0,0,0,.45-.45v-47l18.74-18.61,19.26,0V177.3a3.34,3.34,0,0,0-.47-6.65ZM292.75,155.12a3.34,3.34,0,0,0-.47,6.65V198.5L278.9,211.77v66.56a.45.45,0,1,0,.9,0V212.14l13.38-13.27V161.78a3.34,3.34,0,0,0-.43-6.66Zm307.35,6.66a3.34,3.34,0,0,0-.4,6.65l-.05,44-9.12,9.08v18.9l-9.47,9.36,0,28.53a.45.45,0,0,0,.9,0l0-28.15,9.47-9.37v-18.9l9.12-9.08.05-44.41a3.34,3.34,0,0,0-.5-6.64Z"/></g><circle class="cls-4" cx="740.43" cy="243.27" r="19.59" transform="translate(-36.43 305.75) rotate(-22.79)"/><circle class="cls-5" cx="477.39" cy="201.6" r="10.49"/><circle class="cls-6" cx="36.5" cy="264.67" r="19.17"/><circle class="cls-7" cx="247" cy="214.99" r="17.53" transform="translate(-18.65 406.45) rotate(-76.82)"/><circle class="cls-8" cx="684.38" cy="69.5" r="11.3"/><circle class="cls-9" cx="694.61" cy="215.12" r="19.77" transform="translate(-32.37 231.16) rotate(-18.47)"/><circle class="cls-10" cx="266.18" cy="248.26" r="7.33"/><circle class="cls-11" cx="195.32" cy="179.46" r="20.67" transform="translate(-23.91 328.77) rotate(-76.84)"/><path class="cls-12" d="M696.75,183.05a6.37,6.37,0,1,1-6.37-6.36A6.37,6.37,0,0,1,696.75,183.05Z"/><circle class="cls-13" cx="678.87" cy="119" r="21.68" transform="translate(447.4 768.19) rotate(-80.32)"/><circle class="cls-14" cx="316.86" cy="228.28" r="19.82"/><circle class="cls-15" cx="259.05" cy="189.06" r="20.86" transform="translate(16.53 398.91) rotate(-76.99)"/><circle class="cls-16" cx="262.85" cy="255.07" r="8.47" transform="translate(-45.95 452.02) rotate(-76.67)"/><path class="cls-17" d="M567.28,154.37a7,7,0,1,1-7-7A7,7,0,0,1,567.28,154.37Z"/><circle class="cls-18" cx="206.48" cy="196.16" r="22.24"/><circle class="cls-19" cx="236.06" cy="145.58" r="8.82" transform="translate(43.45 345.13) rotate(-77.68)"/><circle class="cls-20" cx="177.12" cy="157.7" r="14.92"/><circle class="cls-21" cx="141.87" cy="107.46" r="14.98" transform="translate(-30.49 63.13) rotate(-22.72)"/><circle class="cls-22" cx="504.69" cy="202.45" r="8.3"/><circle class="cls-23" cx="142.67" cy="184.69" r="14.82"/><path class="cls-24" d="M498.64,255.36a7.15,7.15,0,1,1-7.15-7.15A7.15,7.15,0,0,1,498.64,255.36Z"/><circle class="cls-25" cx="314.08" cy="205.42" r="19.25"/><circle class="cls-26" cx="31.74" cy="125.43" r="9.67"/><circle class="cls-27" cx="224.46" cy="136.16" r="9.57" transform="translate(-30.54 198.6) rotate(-45)"/><path class="cls-28" d="M304.4,267.24a6.91,6.91,0,1,1-6.9-6.91A6.9,6.9,0,0,1,304.4,267.24Z"/><circle class="cls-29" cx="164.97" cy="194.14" r="19.24"/><circle class="cls-30" cx="458.75" cy="255.08" r="12.96" transform="translate(104.58 642.49) rotate(-76.64)"/><circle class="cls-31" cx="87.96" cy="261.97" r="19.36" transform="translate(-159.48 138.92) rotate(-45)"/><circle class="cls-32" cx="75.67" cy="137.76" r="14.5" transform="translate(-75.25 93.86) rotate(-45)"/><circle class="cls-33" cx="556.91" cy="236.95" r="17.2" transform="translate(197.5 723.89) rotate(-76.62)"/><circle class="cls-34" cx="345.56" cy="184.8" r="7.76"/><circle class="cls-35" cx="126.92" cy="210.57" r="9.43" transform="translate(-111.72 151.42) rotate(-45)"/><circle class="cls-36" cx="673.3" cy="228.76" r="10.04" transform="translate(35.45 543.1) rotate(-45)"/><circle class="cls-37" cx="523.8" cy="235.81" r="11.75"/><circle class="cls-38" cx="724.82" cy="179.18" r="15.33" transform="translate(-12.95 293.9) rotate(-22.72)"/><circle class="cls-39" cx="616.46" cy="157.32" r="7.45"/><circle class="cls-40" cx="403.21" cy="272.61" r="7.71" transform="translate(45.51 602.67) rotate(-76.76)"/><path class="cls-41" d="M508.61,120a6.22,6.22,0,1,1-6.22-6.21A6.22,6.22,0,0,1,508.61,120Z"/><circle class="cls-42" cx="16.75" cy="133.21" r="14.97" transform="translate(-79.77 39.88) rotate(-38.8)"/><circle class="cls-43" cx="589.58" cy="197.89" r="14.53"/><path class="cls-44" d="M83.66,163.56A6.63,6.63,0,1,1,77,156.93,6.62,6.62,0,0,1,83.66,163.56Z"/><circle class="cls-45" cx="184.52" cy="220.82" r="11.08" transform="translate(-72.93 349.38) rotate(-76.65)"/><circle class="cls-46" cx="730.28" cy="274.63" r="12.94"/><circle class="cls-47" cx="323.84" cy="267.71" r="15.59"/><circle class="cls-48" cx="102.24" cy="258.51" r="13.61" transform="translate(-172.73 299.4) rotate(-76.88)"/><circle class="cls-49" cx="107.33" cy="115.97" r="13.81" transform="translate(-50.18 103.33) rotate(-42.63)"/><circle class="cls-50" cx="53.22" cy="263.81" r="7.93"/><circle class="cls-51" cx="280.21" cy="254.16" r="12.12" transform="translate(-75.54 125.5) rotate(-22.33)"/><circle class="cls-52" cx="644.95" cy="84.55" r="16.84"/><circle class="cls-53" cx="549.84" cy="209.9" r="18.44" transform="translate(220.13 697.42) rotate(-76.82)"/><circle class="cls-54" cx="66.11" cy="146.88" r="13.39"/><circle class="cls-55" cx="601.35" cy="117.59" r="20.53" transform="translate(92.98 459.66) rotate(-45)"/><path class="cls-56" d="M193.18,270.68a7.4,7.4,0,1,1-7.4-7.4A7.39,7.39,0,0,1,193.18,270.68Z"/><circle class="cls-57" cx="421.03" cy="244.49" r="13.7" transform="translate(-49.56 369.32) rotate(-45)"/><circle class="cls-58" cx="280.38" cy="84.96" r="15.4"/><circle class="cls-59" cx="418.64" cy="224.22" r="8.82"/><circle class="cls-60" cx="386.12" cy="264.93" r="15.83" transform="translate(-74.24 350.62) rotate(-45)"/><circle class="cls-61" cx="512.76" cy="74.09" r="9.72" transform="translate(323.31 556.3) rotate(-76.77)"/><path class="cls-62" d="M578,267a6.54,6.54,0,1,1-6.54-6.53A6.54,6.54,0,0,1,578,267Z"/><circle class="cls-63" cx="30.56" cy="230.73" r="22.29"/><circle class="cls-64" cx="577.9" cy="131.99" r="13.16"/><circle class="cls-65" cx="324.24" cy="152.66" r="9.25" transform="translate(100.9 432.94) rotate(-76.66)"/><circle class="cls-66" cx="449.21" cy="261.95" r="14.59"/><circle class="cls-67" cx="737.31" cy="136.04" r="6.17"/><circle class="cls-68" cx="199.84" cy="42" r="16.26" transform="translate(28.84 153.61) rotate(-45)"/><circle class="cls-69" cx="242.36" cy="252.21" r="8.34"/><circle class="cls-70" cx="625.42" cy="182.33" r="18.01" transform="translate(54.25 495.64) rotate(-45)"/><circle class="cls-71" cx="382.01" cy="243.79" r="12.87" transform="translate(56.56 559.14) rotate(-76.64)"/><circle class="cls-72" cx="214.71" cy="263.83" r="18.76"/><circle class="cls-73" cx="644.9" cy="179.53" r="12.84" transform="translate(363.99 787.17) rotate(-80.75)"/><circle class="cls-74" cx="497.4" cy="153.61" r="8.67"/><circle class="cls-75" cx="394.64" cy="221.45" r="12.38" transform="matrix(0.67, -0.74, 0.74, 0.67, -35.09, 363.27)"/><circle class="cls-76" cx="538.01" cy="266.88" r="8.28"/><circle class="cls-77" cx="177.56" cy="209.53" r="21.5"/><circle class="cls-78" cx="74.75" cy="209.44" r="16.79"/><circle class="cls-79" cx="568.41" cy="117.93" r="17.34"/><circle class="cls-80" cx="55.63" cy="54.42" r="5.86"/><path class="cls-81" d="M425,259.09a5.94,5.94,0,1,1-5.94-5.94A5.94,5.94,0,0,1,425,259.09Z"/><circle class="cls-82" cx="508.29" cy="238.81" r="19.71"/><circle class="cls-83" cx="450.08" cy="80.1" r="15.04" transform="translate(268.08 499.46) rotate(-76.63)"/><circle class="cls-84" cx="499.63" cy="100.75" r="12.97" transform="translate(287.39 564.14) rotate(-76.79)"/><circle class="cls-85" cx="735.62" cy="83.25" r="9.66"/><circle class="cls-86" cx="657.23" cy="250.16" r="8.13"/><circle class="cls-87" cx="694.25" cy="199.14" r="13.96"/><circle class="cls-88" cx="631.46" cy="226.81" r="18.74" transform="translate(24.57 512.94) rotate(-45)"/><circle class="cls-89" cx="533.67" cy="173.95" r="10.12"/><circle class="cls-90" cx="263.97" cy="274.15" r="9.89" transform="translate(-63.31 468.4) rotate(-76.77)"/><circle class="cls-91" cx="103.88" cy="104.1" r="8.23"/><circle class="cls-92" cx="725.22" cy="211.46" r="14.19" transform="translate(62.89 574.75) rotate(-45)"/><path class="cls-93" d="M150.87,151.21a5.69,5.69,0,1,1-5.68-5.68A5.68,5.68,0,0,1,150.87,151.21Z"/><circle class="cls-94" cx="112.73" cy="176.11" r="19.3"/><circle class="cls-95" cx="412.38" cy="176.51" r="8.73"/><circle class="cls-96" cx="671.68" cy="179.15" r="15.92" transform="translate(-17.05 273.47) rotate(-22.73)"/><circle class="cls-97" cx="672.84" cy="168.76" r="15.38"/><circle class="cls-98" cx="53.7" cy="166.77" r="5.86"/><circle class="cls-99" cx="206.97" cy="248.82" r="16.2" transform="translate(-80.08 99.33) rotate(-22.74)"/><circle class="cls-100" cx="352.9" cy="248.94" r="8.46" transform="translate(-78.62 266.3) rotate(-37.5)"/><path class="cls-101" d="M695.13,261.79a6.66,6.66,0,1,1-6.65-6.65A6.66,6.66,0,0,1,695.13,261.79Z"/><path class="cls-102" d="M138.3,176a5.93,5.93,0,1,1-5.93-5.93A5.93,5.93,0,0,1,138.3,176Z"/><circle class="cls-103" cx="19.44" cy="195.94" r="12.71" transform="matrix(0.31, -0.95, 0.95, 0.31, -173.09, 154.66)"/><circle class="cls-104" cx="391.99" cy="156.36" r="9.79" transform="translate(4.25 322.98) rotate(-45)"/><circle class="cls-105" cx="122.69" cy="272.39" r="8.11"/><circle class="cls-106" cx="457.02" cy="156.19" r="18.18" transform="translate(199.25 564.63) rotate(-76.61)"/><circle class="cls-107" cx="285.07" cy="238.97" r="7.32"/><circle class="cls-108" cx="539.3" cy="254.13" r="19.11"/><circle class="cls-109" cx="104.89" cy="232.48" r="12.62" transform="translate(-129.83 132.71) rotate(-42.69)"/><circle class="cls-110" cx="237.68" cy="224.5" r="8.7" transform="translate(-35.27 404.48) rotate(-76.77)"/><circle class="cls-111" cx="714.17" cy="238.76" r="20.38"/><circle class="cls-112" cx="712.17" cy="224.1" r="18.18"/><circle class="cls-113" cx="43.03" cy="253.19" r="8.43" transform="translate(-213.27 236.91) rotate(-76.72)"/><circle class="cls-114" cx="639.68" cy="200.9" r="19.25" transform="translate(45.3 511.16) rotate(-45)"/><circle class="cls-115" cx="230.66" cy="259.46" r="21.41"/><circle class="cls-116" cx="275.28" cy="140.36" r="7.47" transform="translate(75.61 376.17) rotate(-76.76)"/><path class="cls-117" d="M158.38,252.92a6.89,6.89,0,1,1-6.89-6.88A6.89,6.89,0,0,1,158.38,252.92Z"/><circle class="cls-118" cx="399.1" cy="263.46" r="14.95" transform="translate(75.38 615.45) rotate(-80.83)"/><path class="cls-119" d="M89.33,243.6A6.32,6.32,0,1,1,83,237.28,6.32,6.32,0,0,1,89.33,243.6Z"/><circle class="cls-120" cx="463.2" cy="234.42" r="8.53"/><circle class="cls-121" cx="290.3" cy="169.6" r="13.06" transform="translate(-41.23 113.71) rotate(-20.72)"/><circle class="cls-122" cx="354.77" cy="106.01" r="11.76" transform="translate(-13.45 144.93) rotate(-22.67)"/><g class="cls-123"><path class="cls-124" d="M0,10H10V0H0Zm13.79,0h10V0h-10Zm27.58,0h10V0h-10Zm13.79,0h10V0h-10ZM69,10H79V0H69Zm27.59,0h10V0h-10Zm13.79,0h10V0h-10Zm13.79,0h10V0h-10Zm13.79,0h10V0h-10Zm27.58,0h10V0h-10Zm13.79,0h10V0h-10Zm13.79,0h10V0h-10Zm27.58,0h10V0h-10Zm13.79,0h10V0h-10Zm13.79,0h10V0h-10Zm27.59,0h10V0h-10Zm13.79,0h10V0h-10Zm13.79,0h10V0h-10Zm13.79,0h10V0h-10Zm27.58,0h10V0h-10Zm13.79,0h10V0h-10Zm13.79,0h10V0h-10Zm13.79,0h10V0h-10Zm27.58,0h10V0h-10Zm27.58,0h10V0h-10Zm13.8,0h10V0h-10Zm27.58,0h10V0h-10Zm13.79,0h10V0h-10Zm13.79,0h10V0h-10Zm13.79,0h10V0h-10Zm13.79,0h10V0h-10Zm13.79,0h10V0h-10Zm13.79,0h10V0h-10Zm13.79,0h10V0h-10Zm27.58,0h10V0h-10Zm13.79,0h10V0h-10Zm13.8,0h10V0h-10Zm13.79,0h10V0h-10ZM662,10h10V0H662Zm27.58,0h10V0h-10Zm27.58,0h10V0h-10Zm13.79,0h10V0h-10ZM744.7,0V10h10V0ZM13.79,23.42h10v-10h-10Zm13.79,0h10v-10h-10Zm13.79,0h10v-10h-10Zm13.79,0h10v-10h-10Zm27.58,0h10v-10h-10Zm27.59,0h10v-10h-10Zm13.79,0h10v-10h-10Zm13.79,0h10v-10h-10Zm13.79,0h10v-10h-10Zm27.58,0h10v-10h-10Zm13.79,0h10v-10h-10Zm13.79,0h10v-10h-10Zm41.37,0h10v-10h-10Zm27.59,0h10v-10h-10Zm13.79,0h10v-10h-10Zm13.79,0h10v-10h-10Zm13.79,0h10v-10h-10Zm27.58,0h10v-10h-10Zm13.79,0h10v-10h-10Zm27.58,0h10v-10h-10Zm13.79,0h10v-10h-10Zm13.79,0h10v-10h-10Zm13.79,0h10v-10h-10Zm13.79,0h10v-10h-10Zm13.8,0h10v-10h-10Zm27.58,0h10v-10h-10Zm13.79,0h10v-10h-10Zm27.58,0h10v-10h-10Zm27.58,0h10v-10h-10Zm55.16,0h10v-10h-10Zm13.79,0h10v-10h-10Zm27.59,0h10v-10h-10Zm41.37,0h10v-10h-10Zm13.79,0h10v-10h-10Zm27.58,0h10v-10h-10Zm13.79,0h10v-10h-10ZM0,36.83H10v-10H0Zm27.58,0h10v-10h-10Zm27.58,0h10v-10h-10Zm13.79,0H79v-10H69Zm13.79,0h10v-10h-10Zm13.8,0h10v-10h-10Zm13.79,0h10v-10h-10Zm13.79,0h10v-10h-10Zm13.79,0h10v-10h-10Zm27.58,0h10v-10h-10Zm27.58,0h10v-10h-10Zm13.79,0h10v-10h-10Zm13.79,0h10v-10h-10Zm13.79,0h10v-10h-10Zm13.79,0h10v-10h-10Zm13.79,0h10v-10H262Zm13.8,0h10v-10h-10Zm27.58,0h10v-10h-10Zm27.58,0h10v-10H331Zm27.58,0h10v-10h-10Zm13.79,0h10v-10h-10Zm27.58,0h10v-10h-10Zm13.79,0h10v-10h-10Zm27.58,0h10v-10h-10Zm13.8,0h10v-10h-10Zm27.58,0h10v-10h-10Zm13.79,0h10v-10h-10Zm55.16,0h10v-10h-10Zm41.37,0h10v-10H593Zm13.79,0h10v-10h-10Zm13.79,0h10v-10h-10Zm27.59,0h10v-10h-10Zm13.79,0h10v-10H662Zm13.79,0h10v-10h-10Zm13.79,0h10v-10h-10Zm13.79,0h10v-10h-10Zm27.58,0h10v-10h-10Zm13.79,0h10v-10h-10ZM13.79,50.25h10v-10h-10Zm27.58,0h10v-10h-10Zm13.79,0h10v-10h-10Zm41.38,0h10v-10h-10Zm13.79,0h10v-10h-10Zm206.86,0h10v-10h-10Zm13.79,0h10v-10H331Zm27.58,0h10v-10h-10Zm13.79,0h10v-10h-10Zm13.79,0h10v-10h-10Zm13.79,0h10v-10h-10Zm27.58,0h10v-10h-10Zm13.79,0h10v-10h-10Zm13.8,0h10v-10h-10Zm41.37,0h10v-10h-10Zm55.16,0h10v-10h-10Zm13.79,0h10v-10h-10Zm13.79,0h10v-10h-10Zm13.79,0h10v-10H593Zm27.58,0h10v-10h-10Zm27.59,0h10v-10h-10Zm13.79,0h10v-10H662Zm41.37,0h10v-10h-10Zm13.79,0h10v-10h-10Zm13.79,0h10v-10h-10ZM27.58,63.67h10v-10h-10Zm13.79,0h10v-10h-10Zm13.79,0h10v-10h-10Zm13.79,0H79v-10H69Zm13.79,0h10v-10h-10Zm27.59,0h10v-10h-10Zm13.79,0h10v-10h-10Zm41.37,0h10v-10h-10Zm27.58,0h10v-10h-10Zm13.79,0h10v-10h-10Zm27.58,0h10v-10h-10Zm55.17,0h10v-10h-10Zm13.79,0h10v-10h-10Zm13.79,0h10v-10h-10Zm27.58,0h10v-10h-10Zm13.79,0h10v-10h-10Zm27.58,0h10v-10h-10Zm13.79,0h10v-10h-10Zm27.58,0h10v-10h-10Zm13.79,0h10v-10h-10Zm13.8,0h10v-10h-10Zm13.79,0h10v-10h-10Zm27.58,0h10v-10h-10Zm13.79,0h10v-10h-10Zm27.58,0h10v-10h-10Zm13.79,0h10v-10h-10Zm13.79,0h10v-10h-10Zm27.58,0h10v-10H593Zm13.79,0h10v-10h-10Zm13.79,0h10v-10h-10Zm27.59,0h10v-10h-10Zm27.58,0h10v-10h-10Zm27.58,0h10v-10h-10Zm27.58,0h10v-10h-10Zm13.79,0h10v-10h-10ZM41.37,77.08h10v-10h-10Zm27.58,0H79v-10H69Zm13.79,0h10v-10h-10Zm13.8,0h10v-10h-10Zm27.58,0h10v-10h-10Zm41.37,0h10v-10h-10Zm13.79,0h10v-10h-10Zm41.37,0h10v-10h-10Zm13.79,0h10v-10h-10Zm13.79,0h10v-10h-10Zm27.59,0h10v-10h-10Zm27.58,0h10v-10h-10Zm27.58,0h10v-10H331Zm13.79,0h10v-10h-10Zm27.58,0h10v-10h-10Zm55.16,0h10v-10h-10Zm13.79,0h10v-10h-10Zm27.59,0h10v-10h-10Zm13.79,0h10v-10h-10Zm13.79,0h10v-10h-10Zm41.37,0h10v-10h-10Zm13.79,0h10v-10h-10Zm13.79,0h10v-10h-10Zm27.58,0h10v-10H593Zm13.79,0h10v-10h-10Zm27.59,0h10v-10h-10Zm27.58,0h10v-10H662Zm13.79,0h10v-10h-10Zm27.58,0h10v-10h-10Zm13.79,0h10v-10h-10Zm13.79,0h10v-10h-10ZM13.79,90.5h10v-10h-10Zm13.79,0h10v-10h-10Zm13.79,0h10v-10h-10Zm55.17,0h10v-10h-10Zm27.58,0h10v-10h-10Zm55.16,0h10v-10h-10Zm13.79,0h10v-10h-10Zm13.79,0h10v-10h-10Zm41.37,0h10v-10h-10Zm27.59,0h10v-10h-10Zm13.79,0h10v-10h-10Zm13.79,0h10v-10h-10Zm13.79,0h10v-10h-10Zm13.79,0h10v-10H331Zm27.58,0h10v-10h-10Zm13.79,0h10v-10h-10Zm82.75,0h10v-10h-10Zm13.79,0h10v-10h-10Zm27.58,0h10v-10h-10Zm13.79,0h10v-10h-10Zm13.79,0h10v-10h-10Zm27.58,0h10v-10h-10Zm13.79,0h10v-10h-10Zm82.75,0h10v-10h-10Zm27.58,0h10v-10h-10Zm41.37,0h10v-10h-10Zm27.58,0h10v-10h-10ZM27.58,103.92h10v-10h-10Zm13.79,0h10v-10h-10Zm13.79,0h10v-10h-10Zm55.17,0h10v-10h-10Zm13.79,0h10v-10h-10Zm27.58,0h10v-10h-10Zm13.79,0h10v-10h-10Zm27.58,0h10v-10h-10Zm13.79,0h10v-10h-10Zm27.58,0h10v-10h-10Zm13.79,0h10v-10h-10Zm27.59,0h10v-10h-10Zm13.79,0h10v-10h-10Zm27.58,0h10v-10h-10Zm55.16,0h10v-10h-10Zm27.58,0h10v-10h-10Zm55.17,0h10v-10h-10Zm13.79,0h10v-10h-10Zm13.79,0h10v-10h-10Zm13.79,0h10v-10h-10Zm13.79,0h10v-10h-10Zm13.79,0h10v-10h-10Zm13.79,0h10v-10h-10Zm27.58,0h10v-10h-10Zm69,0h10v-10h-10Zm13.79,0h10v-10h-10Zm41.37,0h10v-10h-10Zm13.79,0h10v-10h-10Zm13.79,0h10v-10h-10Zm13.79,0h10v-10h-10Zm13.79,0h10v-10h-10ZM13.79,117.33h10v-10h-10Zm27.58,0h10v-10h-10Zm13.79,0h10v-10h-10Zm27.58,0h10v-10h-10Zm13.8,0h10v-10h-10Zm27.58,0h10v-10h-10Zm13.79,0h10v-10h-10Zm13.79,0h10v-10h-10Zm13.79,0h10v-10h-10Zm13.79,0h10v-10h-10Zm27.58,0h10v-10h-10Zm13.79,0h10v-10h-10Zm27.58,0h10v-10h-10Zm27.59,0h10v-10h-10Zm27.58,0h10v-10h-10Zm13.79,0h10v-10h-10Zm55.16,0h10v-10h-10Zm27.58,0h10v-10h-10Zm69,0h10v-10h-10Zm69,0h10v-10h-10Zm13.79,0h10v-10h-10Zm13.79,0h10v-10h-10Zm27.58,0h10v-10H593Zm13.79,0h10v-10h-10Zm41.38,0h10v-10h-10Zm41.37,0h10v-10h-10Zm27.58,0h10v-10h-10Zm27.58,0h10v-10h-10ZM0,130.75H10v-10H0Zm13.79,0h10v-10h-10Zm13.79,0h10v-10h-10Zm13.79,0h10v-10h-10Zm13.79,0h10v-10h-10Zm13.79,0H79v-10H69Zm13.79,0h10v-10h-10Zm27.59,0h10v-10h-10Zm27.58,0h10v-10h-10Zm13.79,0h10v-10h-10Zm41.37,0h10v-10h-10Zm27.58,0h10v-10h-10Zm13.79,0h10v-10h-10Zm13.79,0h10v-10h-10Zm27.59,0h10v-10h-10Zm13.79,0h10v-10h-10Zm27.58,0h10v-10h-10Zm55.16,0h10v-10h-10Zm13.79,0h10v-10h-10Zm13.79,0h10v-10h-10Zm27.58,0h10v-10h-10Zm13.79,0h10v-10h-10Zm13.8,0h10v-10h-10Zm13.79,0h10v-10h-10Zm55.16,0h10v-10h-10Zm13.79,0h10v-10h-10ZM0,144.17H10v-10H0Zm27.58,0h10v-10h-10Zm13.79,0h10v-10h-10Zm41.37,0h10v-10h-10Zm13.8,0h10v-10h-10Zm27.58,0h10v-10h-10Zm13.79,0h10v-10h-10Zm13.79,0h10v-10h-10Zm13.79,0h10v-10h-10Zm13.79,0h10v-10h-10Zm13.79,0h10v-10h-10Zm13.79,0h10v-10h-10Zm13.79,0h10v-10h-10Zm27.58,0h10v-10h-10Zm41.38,0h10v-10h-10Zm13.79,0h10v-10h-10Zm13.79,0h10v-10h-10Zm13.79,0h10v-10H331Zm13.79,0h10v-10h-10Zm27.58,0h10v-10h-10Zm13.79,0h10v-10h-10Zm13.79,0h10v-10h-10Zm27.58,0h10v-10h-10Zm27.59,0h10v-10h-10Zm27.58,0h10v-10h-10Zm27.58,0h10v-10h-10Zm13.79,0h10v-10h-10Zm13.79,0h10v-10h-10ZM13.79,157.58h10v-10h-10Zm13.79,0h10v-10h-10Zm13.79,0h10v-10h-10Zm41.37,0h10v-10h-10Zm13.8,0h10v-10h-10Zm13.79,0h10v-10h-10Zm13.79,0h10v-10h-10Zm41.37,0h10v-10h-10Zm13.79,0h10v-10h-10Zm41.37,0h10v-10h-10Zm27.58,0h10v-10h-10Zm27.59,0h10v-10h-10Zm41.37,0h10v-10h-10Zm27.58,0h10v-10h-10Zm13.79,0h10v-10h-10Zm13.79,0h10v-10h-10Zm27.58,0h10v-10h-10Zm13.79,0h10v-10h-10Zm13.79,0h10v-10h-10Zm13.79,0h10v-10h-10Zm27.59,0h10v-10h-10Zm27.58,0h10v-10h-10Zm13.79,0h10v-10h-10Zm27.58,0h10v-10h-10Zm13.79,0h10v-10h-10Zm55.16,0h10v-10h-10Zm27.59,0h10v-10h-10Zm27.58,0h10v-10H662Zm27.58,0h10v-10h-10Zm27.58,0h10v-10h-10Zm13.79,0h10v-10h-10Zm13.79,0h10v-10h-10ZM0,171H10V161H0Zm13.79,0h10V161h-10Zm27.58,0h10V161h-10Zm137.91,0h10V161h-10Zm27.58,0h10V161h-10Zm27.58,0h10V161h-10Zm13.79,0h10V161h-10Zm27.59,0h10V161h-10Zm13.79,0h10V161h-10Zm13.79,0h10V161h-10Zm13.79,0h10V161h-10ZM331,171h10V161H331Zm13.79,0h10V161h-10Zm13.79,0h10V161h-10Zm27.58,0h10V161h-10Zm27.58,0h10V161h-10Zm13.79,0h10V161h-10Zm27.59,0h10V161h-10Zm13.79,0h10V161h-10Zm13.79,0h10V161h-10Zm41.37,0h10V161h-10Zm13.79,0h10V161h-10Zm13.79,0h10V161h-10Zm55.16,0h10V161h-10Zm13.79,0h10V161h-10Zm13.8,0h10V161h-10Zm13.79,0h10V161h-10Zm27.58,0h10V161h-10Zm13.79,0h10V161h-10Zm27.58,0h10V161h-10Zm13.79,0h10V161h-10Zm13.79,0h10V161h-10ZM0,184.42H10v-10H0Zm13.79,0h10v-10h-10Zm27.58,0h10v-10h-10Zm55.17,0h10v-10h-10Zm55.16,0h10v-10h-10Zm27.58,0h10v-10h-10Zm13.79,0h10v-10h-10Zm13.79,0h10v-10h-10Zm27.58,0h10v-10h-10Zm13.79,0h10v-10h-10Zm13.79,0h10v-10H262Zm13.8,0h10v-10h-10Zm13.79,0h10v-10h-10Zm27.58,0h10v-10h-10Zm27.58,0h10v-10h-10Zm13.79,0h10v-10h-10Zm41.37,0h10v-10h-10Zm13.79,0h10v-10h-10Zm41.38,0h10v-10h-10Zm13.79,0h10v-10h-10Zm27.58,0h10v-10h-10Zm13.79,0h10v-10h-10Zm13.79,0h10v-10h-10Zm82.74,0h10v-10h-10Zm27.59,0h10v-10h-10Zm27.58,0h10v-10H662Zm27.58,0h10v-10h-10Zm13.79,0h10v-10h-10Zm27.58,0h10v-10h-10ZM0,197.83H10v-10H0Zm27.58,0h10v-10h-10Zm27.58,0h10v-10h-10Zm41.38,0h10v-10h-10Zm69,0h10v-10h-10Zm13.79,0h10v-10h-10Zm13.79,0h10v-10h-10Zm13.79,0h10v-10h-10Zm27.58,0h10v-10h-10Zm13.79,0h10v-10h-10Zm13.79,0h10v-10H262Zm13.8,0h10v-10h-10Zm27.58,0h10v-10h-10Zm13.79,0h10v-10h-10Zm13.79,0h10v-10H331Zm41.37,0h10v-10h-10Zm13.79,0h10v-10h-10Zm13.79,0h10v-10h-10Zm13.79,0h10v-10h-10Zm55.17,0h10v-10h-10Zm13.79,0h10v-10h-10Zm27.58,0h10v-10h-10Zm13.79,0h10v-10h-10Zm55.16,0h10v-10h-10Zm13.79,0h10v-10H593Zm13.79,0h10v-10h-10Zm13.79,0h10v-10h-10Zm13.8,0h10v-10h-10Zm41.37,0h10v-10h-10Zm13.79,0h10v-10h-10Zm41.37,0h10v-10h-10Zm13.79,0h10v-10h-10ZM0,211.25H10v-10H0Zm13.79,0h10v-10h-10Zm13.79,0h10v-10h-10Zm13.79,0h10v-10h-10Zm27.58,0H79v-10H69Zm13.79,0h10v-10h-10Zm13.8,0h10v-10h-10Zm13.79,0h10v-10h-10Zm13.79,0h10v-10h-10Zm82.74,0h10v-10h-10Zm13.79,0h10v-10h-10Zm13.79,0h10v-10h-10Zm41.38,0h10v-10h-10Zm13.79,0h10v-10h-10Zm13.79,0h10v-10h-10Zm13.79,0h10v-10h-10Zm13.79,0h10v-10H331Zm13.79,0h10v-10h-10Zm13.79,0h10v-10h-10Zm13.79,0h10v-10h-10Zm27.58,0h10v-10h-10Zm13.79,0h10v-10h-10Zm13.79,0h10v-10h-10Zm41.38,0h10v-10h-10Zm13.79,0h10v-10h-10Zm13.79,0h10v-10h-10Zm27.58,0h10v-10h-10Zm55.16,0h10v-10h-10Zm13.79,0h10v-10H593Zm41.38,0h10v-10h-10Zm13.79,0h10v-10h-10Zm13.79,0h10v-10H662Zm27.58,0h10v-10h-10Zm13.79,0h10v-10h-10Zm13.79,0h10v-10h-10Zm13.79,0h10v-10h-10Zm13.79,0h10v-10h-10ZM0,224.67H10v-10H0Zm27.58,0h10v-10h-10Zm13.79,0h10v-10h-10Zm27.58,0H79v-10H69Zm41.38,0h10v-10h-10Zm13.79,0h10v-10h-10Zm27.58,0h10v-10h-10Zm13.79,0h10v-10h-10Zm13.79,0h10v-10h-10Zm13.79,0h10v-10h-10Zm27.58,0h10v-10h-10Zm13.79,0h10v-10h-10Zm110.33,0h10v-10h-10Zm13.79,0h10v-10h-10Zm27.58,0h10v-10h-10Zm13.79,0h10v-10h-10Zm13.79,0h10v-10h-10Zm13.79,0h10v-10h-10Zm27.59,0h10v-10h-10Zm13.79,0h10v-10h-10Zm13.79,0h10v-10h-10Zm13.79,0h10v-10h-10Zm27.58,0h10v-10h-10Zm13.79,0h10v-10h-10Zm13.79,0h10v-10h-10Zm13.79,0h10v-10h-10Zm124.12,0h10v-10h-10Zm27.58,0h10v-10h-10Zm27.58,0h10v-10h-10ZM0,238.08H10v-10H0Zm13.79,0h10v-10h-10Zm13.79,0h10v-10h-10Zm27.58,0h10v-10h-10Zm13.79,0H79v-10H69Zm41.38,0h10v-10h-10Zm41.37,0h10v-10h-10Zm27.58,0h10v-10h-10Zm27.58,0h10v-10h-10Zm27.58,0h10v-10h-10Zm69,0h10v-10h-10Zm13.79,0h10v-10h-10Zm13.79,0h10v-10H331Zm27.58,0h10v-10h-10Zm13.79,0h10v-10h-10Zm13.79,0h10v-10h-10Zm13.79,0h10v-10h-10Zm13.79,0h10v-10h-10Zm13.79,0h10v-10h-10Zm13.79,0h10v-10h-10Zm13.8,0h10v-10h-10Zm27.58,0h10v-10h-10Zm27.58,0h10v-10h-10Zm13.79,0h10v-10h-10Zm27.58,0h10v-10h-10Zm27.58,0h10v-10h-10Zm55.17,0h10v-10h-10Zm13.79,0h10v-10h-10Zm13.79,0h10v-10H662Zm27.58,0h10v-10h-10Zm13.79,0h10v-10h-10Zm13.79,0h10v-10h-10ZM0,251.5H10v-10H0Zm27.58,0h10v-10h-10Zm13.79,0h10v-10h-10Zm27.58,0H79v-10H69Zm13.79,0h10v-10h-10Zm13.8,0h10v-10h-10Zm13.79,0h10v-10h-10Zm41.37,0h10v-10h-10Zm13.79,0h10v-10h-10Zm13.79,0h10v-10h-10Zm13.79,0h10v-10h-10Zm27.58,0h10v-10h-10Zm13.79,0h10v-10h-10Zm55.17,0h10v-10h-10Zm13.79,0h10v-10h-10Zm27.58,0h10v-10H331Zm13.79,0h10v-10h-10Zm27.58,0h10v-10h-10Zm13.79,0h10v-10h-10Zm27.58,0h10v-10h-10Zm41.38,0h10v-10h-10Zm13.79,0h10v-10h-10Zm27.58,0h10v-10h-10Zm13.79,0h10v-10h-10Zm13.79,0h10v-10h-10Zm13.79,0h10v-10h-10Zm13.79,0h10v-10h-10Zm13.79,0h10v-10h-10Zm13.79,0h10v-10h-10Zm55.17,0h10v-10h-10Zm13.79,0h10v-10h-10Zm41.37,0h10v-10h-10Zm41.37,0h10v-10h-10Zm13.79,0h10v-10h-10ZM0,264.92H10v-10H0Zm13.79,0h10v-10h-10Zm27.58,0h10v-10h-10Zm27.58,0H79v-10H69Zm27.59,0h10v-10h-10Zm27.58,0h10v-10h-10Zm13.79,0h10v-10h-10Zm13.79,0h10v-10h-10Zm27.58,0h10v-10h-10Zm13.79,0h10v-10h-10Zm13.79,0h10v-10h-10Zm27.58,0h10v-10h-10Zm13.79,0h10v-10h-10Zm13.79,0h10v-10H262Zm13.8,0h10v-10h-10Zm13.79,0h10v-10h-10Zm13.79,0h10v-10h-10Zm27.58,0h10v-10H331Zm13.79,0h10v-10h-10Zm27.58,0h10v-10h-10Zm27.58,0h10v-10h-10Zm13.79,0h10v-10h-10Zm13.79,0h10v-10h-10Zm13.79,0h10v-10h-10Zm13.8,0h10v-10h-10Zm27.58,0h10v-10h-10Zm27.58,0h10v-10h-10Zm27.58,0h10v-10h-10Zm13.79,0h10v-10h-10Zm27.58,0h10v-10h-10Zm13.79,0h10v-10H593Zm27.58,0h10v-10h-10Zm13.8,0h10v-10h-10Zm13.79,0h10v-10h-10Zm13.79,0h10v-10H662Zm27.58,0h10v-10h-10Zm13.79,0h10v-10h-10Zm27.58,0h10v-10h-10Zm13.79,0h10v-10h-10ZM0,278.33H10v-10H0Zm13.79,0h10v-10h-10Zm13.79,0h10v-10h-10Zm13.79,0h10v-10h-10Zm13.79,0h10v-10h-10Zm27.58,0h10v-10h-10Zm13.8,0h10v-10h-10Zm13.79,0h10v-10h-10Zm13.79,0h10v-10h-10Zm13.79,0h10v-10h-10Zm27.58,0h10v-10h-10Zm13.79,0h10v-10h-10Zm13.79,0h10v-10h-10Zm13.79,0h10v-10h-10Zm13.79,0h10v-10h-10Zm13.79,0h10v-10h-10Zm27.58,0h10v-10H262Zm27.59,0h10v-10h-10Zm13.79,0h10v-10h-10Zm13.79,0h10v-10h-10Zm13.79,0h10v-10H331Zm13.79,0h10v-10h-10Zm13.79,0h10v-10h-10Zm13.79,0h10v-10h-10Zm27.58,0h10v-10h-10Zm13.79,0h10v-10h-10Zm27.58,0h10v-10h-10Zm27.59,0h10v-10h-10Zm13.79,0h10v-10h-10Zm13.79,0h10v-10h-10Zm13.79,0h10v-10h-10Zm27.58,0h10v-10h-10Zm13.79,0h10v-10h-10Zm13.79,0h10v-10h-10Zm13.79,0h10v-10h-10Zm13.79,0h10v-10H593Zm27.58,0h10v-10h-10Zm13.8,0h10v-10h-10Zm27.58,0h10v-10H662Zm13.79,0h10v-10h-10Zm13.79,0h10v-10h-10Zm13.79,0h10v-10h-10Zm27.58,0h10v-10h-10Z"/></g></g></g></g></svg>